<?xml version="1.0" encoding="UTF-8"?>
<svg width="32px" height="32px" viewBox="0 0 32 32" version="1.1" xmlns="http://www.w3.org/2000/svg" xmlns:xlink="http://www.w3.org/1999/xlink">
    <!-- Generator: Sketch 51.3 (57544) - http://www.bohemiancoding.com/sketch -->
    <title>call</title>
    <desc>Created with Sketch.</desc>
    <defs>
        <path d="M13,2 L13,0 C23.477,0 32,8.523 32,19 L30,19 C30,9.626 22.374,2 13,2 M13,14 L13,12 C16.859,12 20,15.141 20,19 L18,19 C18,16.243 15.757,14 13,14 M13,8 L13,6 C20.168,6 26,11.832 26,19 L24,19 C24,12.935 19.065,8 13,8 M2,14.3848 L3.557,12.8278 L7.404,16.8298 L5,19.2348 L5.33,19.8818 C6.865,22.8918 9.108,24.9808 12.118,26.5158 L12.766,26.8458 L15.17,24.4418 L19.172,28.4438 L17.615,29.9998 L17.476,29.9998 C9.059,29.9998 2,23.0118 2,14.5248 L2,14.3848 Z M17.476,31.9998 L18.443,31.9998 L22,28.4438 L15.17,21.6138 L12.394,24.3898 C10.247,23.1508 8.695,21.7528 7.456,19.6068 L10.232,16.8298 L3.557,9.9998 L0,13.5568 L0,14.5248 C0,23.9998 8,31.9998 17.476,31.9998 Z" id="path-1"></path>
    </defs>
    <g id="Page-1" stroke="none" stroke-width="1" fill="none" fill-rule="evenodd">
        <g id="VoLTE-WoFi-FI" transform="translate(-626.000000, -1010.000000)">
            <g id="call" transform="translate(626.000000, 1010.000000)">
                <mask id="mask-2" fill="white">
                    <use xlink:href="#path-1"></use>
                </mask>
                <use id="Mask" fill="#00B956" xlink:href="#path-1"></use>
            </g>
        </g>
    </g>
</svg>