<!-- Generated by IcoMoon.io -->
<svg version="1.1" xmlns="http://www.w3.org/2000/svg" width="1024" height="1024" viewBox="0 0 1024 1024">
<title></title>
<g id="icomoon-ignore">
</g>
<path opacity="0.67" fill="#000" d="M583.68 819.2c-125.44 0-235.52-76.8-276.48-194.56l-161.28-43.52v-115.2l161.28-43.52c40.96-115.2 151.040-192 276.48-192 161.28 0 294.4 133.12 294.4 294.4 0 163.84-133.12 294.4-294.4 294.4zM197.12 545.28l151.040 40.96 5.12 12.8c30.72 102.4 125.44 171.52 232.96 171.52 133.12 0 243.2-110.080 243.2-243.2s-112.64-245.76-245.76-245.76c-107.52 0-199.68 69.12-232.96 171.52l-5.12 12.8-151.040 40.96v38.4z"></path>
<path opacity="0.67" fill="#000" d="M512 524.8c0 20.48-15.36 35.84-35.84 35.84s-35.84-15.36-35.84-35.84 15.36-35.84 35.84-35.84 35.84 17.92 35.84 35.84z"></path>
<path opacity="0.67" fill="#000" d="M619.52 524.8c0 20.48-15.36 35.84-35.84 35.84s-35.84-15.36-35.84-35.84 15.36-35.84 35.84-35.84c20.48 0 35.84 17.92 35.84 35.84z"></path>
<path opacity="0.67" fill="#000" d="M727.040 524.8c0 20.48-15.36 35.84-35.84 35.84s-35.84-15.36-35.84-35.84 15.36-35.84 35.84-35.84 35.84 17.92 35.84 35.84z"></path>
</svg>
