<?xml version="1.0" encoding="UTF-8"?>
<svg width="9px" height="16px" viewBox="0 0 9 16" version="1.1" xmlns="http://www.w3.org/2000/svg" xmlns:xlink="http://www.w3.org/1999/xlink">
    <!-- Generator: Sketch 51.3 (57544) - http://www.bohemiancoding.com/sketch -->
    <title></title>
    <desc>Created with Sketch.</desc>
    <defs></defs>
    <g id="Symbols" stroke="none" stroke-width="1" fill="none" fill-rule="evenodd">
        <g id="Footer/1280" transform="translate(-1035.000000, -251.000000)" fill="#535353">
            <g id="Group-3" transform="translate(1021.000000, 240.000000)">
                <path d="M17.1822597,15.0639541 L17.1822597,17.0839004 L14.8256557,17.0839004 L14.8256557,19.8689777 L17.1822597,19.8689777 L17.1822597,27 L20.0591528,27 L20.0591528,19.8689777 L22.4157567,19.8689777 L22.7524144,17.0839004 L20.0591528,17.0839004 L20.0591528,15.3394013 C20.0591528,14.8701186 20.1509676,14.5181617 20.3346,14.2835204 C20.5182324,14.048879 20.8854916,13.93156 21.4363888,13.93156 L22.9360459,13.93156 L22.9360459,11.5137456 C22.9156423,11.5137456 22.6503995,11.4984431 22.1403095,11.4678377 C21.6302195,11.4372323 21.1711454,11.4219299 20.7630734,11.4219299 C19.6816827,11.4219299 18.8145427,11.7330801 18.1616275,12.3553899 C17.5087123,12.9776996 17.1822597,13.8805454 17.1822597,15.0639541 Z" id=""></path>
            </g>
        </g>
    </g>
</svg>