<?xml version="1.0" encoding="UTF-8"?>
<svg width="28px" height="32px" viewBox="0 0 28 32" version="1.1" xmlns="http://www.w3.org/2000/svg" xmlns:xlink="http://www.w3.org/1999/xlink">
    <!-- Generator: Sketch 51.3 (57544) - http://www.bohemiancoding.com/sketch -->
    <title>gift</title>
    <desc>Created with Sketch.</desc>
    <defs>
        <path d="M26,32 L26,20 L28,20 L28,10 L23.4,10 C24.4,8.9 25,7.5 25,6 C25,2.7 22.3,0 19,0 C16.9,0 15.1,1.1 14,2.7 C12.9,1.1 11.1,0 9,0 C5.7,0 3,2.7 3,6 C3,7.5 3.6,8.9 4.6,10 L0,10 L0,20 L2,20 L2,32 L26,32 Z M4,20 L13,20 L13,30 L4,30 L4,20 Z M24,30 L15,30 L15,20 L24,20 L24,30 Z M19,2 C21.2,2 23,3.8 23,6 C23,8.2 21.2,10 19,10 L15,10 L15,6 C15,3.8 16.8,2 19,2 Z M5,6 C5,3.8 6.8,2 9,2 C11.2,2 13,3.8 13,6 L13,10 L9,10 C6.8,10 5,8.2 5,6 Z M2,12 L9,12 L13,12 L15,12 L19,12 L26,12 L26,18 L2,18 L2,12 Z" id="path-1"></path>
    </defs>
    <g id="Page-1" stroke="none" stroke-width="1" fill="none" fill-rule="evenodd">
        <g id="VoLTE-WoFi-FI" transform="translate(-628.000000, -1181.000000)">
            <g id="gift" transform="translate(628.000000, 1181.000000)">
                <mask id="mask-2" fill="white">
                    <use xlink:href="#path-1"></use>
                </mask>
                <use id="Mask" fill="#00B956" fill-rule="nonzero" xlink:href="#path-1"></use>
            </g>
        </g>
    </g>
</svg>