<?xml version="1.0" encoding="UTF-8"?>
<svg width="21px" height="21px" viewBox="0 0 21 21" version="1.1" xmlns="http://www.w3.org/2000/svg" xmlns:xlink="http://www.w3.org/1999/xlink">
    <title></title>
    <path d="M14.5 2H6.6C4.1 2 2 4 2 6.5v7.9C2 17 4.1 19 6.6 19h7.9c2.5 0 4.5-2 4.5-4.5v-8C19 4 17 2 14.5 2zm-4.1 12.8c-2.5 0-4.3-1.9-4.4-4.3 0-2.4 2-4.3 4.3-4.4 2.5 0 4.3 1.9 4.4 4.3 0 2.6-1.8 4.4-4.3 4.4zm5-8.2c-.5 0-1-.5-1-1s.5-1 1-1 1 .4 1 1c0 .5-.5 1-1 1z"></path><path d="M10.4 7.8c-1.6 0-2.8 1.3-2.8 2.8 0 1.6 1.3 2.7 2.8 2.7 1.6 0 2.8-1.3 2.8-2.8.1-1.5-1.2-2.7-2.8-2.7z"></path>
</svg>