<!-- Generated by IcoMoon.io -->
<svg version="1.1" xmlns="http://www.w3.org/2000/svg" width="1024" height="1024" viewBox="0 0 1024 1024">
<title></title>
<g id="icomoon-ignore">
</g>
<path fill="#000" d="M570.88 826.88h-112.64l-153.6-302.080c-2.56-2.56-20.48-35.84-20.48-94.72 0-128 104.96-230.4 230.4-230.4 128 0 230.4 104.96 230.4 230.4 0 53.76-17.92 92.16-20.48 94.72v0l-153.6 302.080zM488.96 775.68h51.2l140.8-273.92c0-2.56 15.36-30.72 15.36-71.68 0-99.84-81.92-179.2-179.2-179.2-99.84 0-179.2 81.92-179.2 179.2 0 43.52 12.8 69.12 12.8 69.12l138.24 276.48z"></path>
<path fill="#000" d="M514.56 537.6c-56.32 0-102.4-46.080-102.4-102.4s46.080-102.4 102.4-102.4c56.32 0 102.4 46.080 102.4 102.4s-46.080 102.4-102.4 102.4zM514.56 384c-28.16 0-51.2 23.040-51.2 51.2s23.040 51.2 51.2 51.2c28.16 0 51.2-23.040 51.2-51.2s-23.040-51.2-51.2-51.2z"></path>
</svg>
