<!-- Generated by IcoMoon.io -->
<svg version="1.1" xmlns="http://www.w3.org/2000/svg" width="1024" height="1024" viewBox="0 0 1024 1024">
<title></title>
<g id="icomoon-ignore">
</g>
<path fill="#000" d="M647.68 829.44l-296.96-87.040v-527.36l23.040-17.92 299.52 84.48v527.36l-25.6 20.48zM401.92 704l217.6 61.44v-445.44l-217.6-61.44v445.44z"></path>
<path fill="#000" d="M647.68 829.44l-28.16-17.92v-527.36l174.080-87.040 30.72 17.92v522.24l-176.64 92.16zM673.28 317.44v442.88l102.4-51.2v-442.88l-102.4 51.2z"></path>
<path fill="#000" d="M227.84 826.88l-30.72-17.92v-522.24l176.64-89.6 25.6 15.36 2.56 15.36v512l-174.080 87.040zM248.32 317.44v442.88l102.4-51.2v-442.88l-102.4 51.2z"></path>
</svg>
