<?xml version="1.0" encoding="UTF-8"?>
<svg id="mobile_4g" width="40px" height="40px" viewBox="0 0 40 40" version="1.1" xmlns="http://www.w3.org/2000/svg" xmlns:xlink="http://www.w3.org/1999/xlink">
<title>mobile_4g</title><path d="M32.1 13C28.3 6.3 19.7 4 13 7.9S4 20.3 7.9 27s12.4 9 19.1 5.1c2.1-1.2 3.9-3 5.1-5.1l1.7 1c-4.4 7.7-14.2 10.3-21.9 5.9S1.7 19.7 6.1 12 20.4 1.7 28 6.1c2.4 1.4 4.5 3.4 5.9 5.9l-1.8 1zm4.9 3h-2v3h-3v2h3v3h2v-3h3v-2h-3v-3zM18 26v-2h1v-2h-1v-3h-2v3h-3.7l2.5-7.7-1.9-.6-2.7 8.4-.1.5.9 1.3h5v2h2zm10.3-9.3l1.2-1.6c-2.5-1.8-5.9-1.5-8 .6-2.4 2.4-2.4 6.3 0 8.7 1.2 1.2 2.7 1.8 4.3 1.8 1.3 0 2.6-.4 3.7-1.2l.4-.3V19h-4.1v2h2.1v2.5c-1.6.9-3.7.7-5-.7-1.6-1.6-1.6-4.2 0-5.8 1.5-1.4 3.8-1.5 5.4-.3z"></path>
</svg>