<?xml version="1.0" encoding="UTF-8"?>
<svg width="21px" height="21px" viewBox="0 0 21 21" version="1.1" xmlns="http://www.w3.org/2000/svg" xmlns:xlink="http://www.w3.org/1999/xlink">
    <title></title>
    <path d="M15.2 17.5l-2.7-2.7c.9-.2 2-.6 2.8-1.2.7-.4.9-1.3.4-2-.4-.7-1.3-.9-2-.4-2 1.3-4.6 1.2-6.5 0-.7-.4-1.5-.2-2 .4-.4.7-.2 1.5.4 2 .9.5 1.8.9 2.8 1.2l-2.7 2.7c-.6.6-.6 1.5 0 2 .6.6 1.5.6 2 0l2.7-2.7 2.7 2.7c.6.6 1.5.6 2 0 .6-.6.6-1.6.1-2z"></path><path d="M10.5 1.1C7.8 1.1 5.7 3.3 5.7 6s2.2 5 4.9 5 4.9-2.2 4.9-4.9-2.3-5-5-5zm0 6.9c-1.1 0-2-.9-2-2s.9-2 2-2 2 .9 2 2-1 2-2 2z"></path>
</svg>