<?xml version="1.0" encoding="UTF-8"?>
<svg width="21px" height="21px" viewBox="0 0 21 21" version="1.1" xmlns="http://www.w3.org/2000/svg"
	 xmlns:xlink="http://www.w3.org/1999/xlink">
	<title></title>
	<path d="M19 5.3c-.6.3-1.3.5-2 .5.6-.5 1.3-1.1 1.5-2-.4.3-1 .6-1.5.8-.8.3-1.1-.4-1.8-.6-.4-.3-.8-.3-1.3-.3-2.5-.3-4.3 2-3.8 4.4C7.3 8 4.7 6.6 2.8 4.3c-.7 1.8-.5 3.8 1.1 4.9-.6 0-1.1-.2-1.5-.4.1 1.6 1.1 3.1 2.9 3.5-.5.3-1.1.1-1.5.1C4.3 14 5.7 15 7.2 15c-1.1 1.3-3.8 1.8-5.3 1.5.5.6 2 1 2.8 1.3 1.3.3 2.6.5 3.9.2 2.5-.3 4.9-1.4 6.5-3.4.9-1.1 1.5-2.3 2-3.6.3-.6.4-1.1.5-1.9.1-.6 0-1.4.3-2-.4-.1 1.4-1.5 1.1-1.8z"></path>
</svg>