<?xml version="1.0" encoding="UTF-8"?>
<svg width="35px" height="35px" viewBox="0 0 35 35" version="1.1" xmlns="http://www.w3.org/2000/svg" xmlns:xlink="http://www.w3.org/1999/xlink">
    <!-- Generator: Sketch 58 (84663) - https://sketch.com -->
    <title>Vimeo Copy 3_Color</title>
    <desc>Created with Sketch.</desc>
    <g id="Page-1" stroke="none" stroke-width="1" fill="none" fill-rule="evenodd">
        <g id="VoLTE-WoFi-FI" transform="translate(-705.000000, -2543.000000)">
            <g id="Vimeo-Copy-3" transform="translate(705.000000, 2543.000000)">
                <path d="M0,17.5 C0,7.8350164 7.8350164,0 17.5,0 C27.1649836,0 35,7.8350164 35,17.5 C35,27.1649836 27.1649836,35 17.5,35 C7.8350164,35 0,27.1649836 0,17.5 Z" id="back" fill="#31AFD8"></path>
                <path d="M27.4064562,14.1181298 C27.312981,16.1622345 25.8854254,18.9606793 23.1235472,22.5134644 C20.268436,26.2231717 17.85261,28.0788729 15.8772798,28.0788729 C14.6526575,28.0788729 13.6169229,26.9496631 12.7705605,24.6895484 C12.2055923,22.617837 11.6411085,20.5463679 11.0758982,18.4746566 C10.447241,16.2157527 9.77354126,15.0850899 9.05237747,15.0850899 C8.89521316,15.0850899 8.34550133,15.4156435 7.40421064,16.0738447 L6.41666667,14.8015161 C7.45312773,13.8912223 8.47530113,12.9806865 9.48100739,12.0689398 C10.8632784,10.8750722 11.9016767,10.2466572 12.5932966,10.1834524 C14.2269335,10.0262881 15.232882,11.1431475 15.6104153,13.5340307 C16.0184613,16.1140439 16.3010665,17.718379 16.4594416,18.3463098 C16.9311767,20.4867956 17.4496494,21.5559488 18.0155862,21.5559488 C18.4546292,21.5559488 19.115252,20.8619073 19.9957596,19.4728558 C20.874572,18.0847729 21.3458228,17.0284544 21.4092697,16.3024473 C21.5349527,15.104463 21.063702,14.5038968 19.9957596,14.5038968 C19.4930275,14.5038968 18.9745548,14.6196511 18.4413102,14.8482537 C19.4736544,11.4683735 21.4453521,9.82674513 24.3556767,9.92046252 C26.5133561,9.98366727 27.5311706,11.3828897 27.4064562,14.1181298" id="Fill-4" fill="#FFFFFE"></path>
            </g>
        </g>
    </g>
</svg>