<!-- Generated by IcoMoon.io -->
<svg version="1.1" xmlns="http://www.w3.org/2000/svg" width="1024" height="1024" viewBox="0 0 1024 1024">
<title></title>
<g id="icomoon-ignore">
</g>
<path fill="#000" d="M504.32 829.44c-130.56 0-238.080-104.96-238.080-238.080v-102.4h51.2v102.4c0 102.4 84.48 186.88 186.88 186.88s186.88-84.48 186.88-186.88v-102.4h51.2v102.4c-2.56 133.12-107.52 238.080-238.080 238.080z"></path>
<path fill="#000" d="M739.84 519.68h-473.6v-243.2h99.84l38.4 76.8h5.12l51.2-153.6h81.92l53.76 153.6h5.12l38.4-76.8h99.84v243.2zM317.44 468.48h371.2v-140.8h-15.36l-38.4 76.8h-71.68l-53.76-153.6h-10.24l-51.2 153.6h-71.68l-38.4-76.8h-15.36v140.8z"></path>
</svg>
