<?xml version="1.0" encoding="UTF-8"?>
<svg width="21px" height="21px" viewBox="0 0 21 21" version="1.1" xmlns="http://www.w3.org/2000/svg"
     xmlns:xlink="http://www.w3.org/1999/xlink">
    <title></title>
    <path d="M17.9 12.9c-.5-.6-1.2-1.2-1.4-1.5-.2-.4-.2-.6 0-.9 0 0 2.5-3.4 2.7-4.6.1-.4-.1-.7-.6-.7h-2.1c-.5 0-.7.2-.8.6 0 0-1.2 2.5-2.5 4-.5.6-.7.8-.9.8s-.3-.3-.3-.8v-4c0-.6-.1-.7-.6-.7H8c-.2 0-.5.2-.5.4 0 .6.8.7.8 2.1v3c0 .6 0 .8-.2.8-.7 0-2.5-2.5-3.4-5.4-.3-.8-.4-1-1-1H1.6c-.4 0-.6.4-.6.6 0 .6.7 3.2 3.3 6.7C6 14.7 8.4 16 10.5 16c1.3 0 1.6-.2 1.6-.7v-1.9c0-.5.2-.7.5-.7s.8.1 2.1 1.3c1.4 1.4 1.5 2 2.3 2h2.5c.2 0 .5-.1.5-.6-.4-.3-1.1-1.3-2.1-2.5z"></path>
</svg>