<?xml version="1.0" encoding="UTF-8"?>
<svg width="18px" height="11px" viewBox="0 0 18 11" version="1.1" xmlns="http://www.w3.org/2000/svg" xmlns:xlink="http://www.w3.org/1999/xlink">
    <!-- Generator: Sketch 51.3 (57544) - http://www.bohemiancoding.com/sketch -->
    <title>Shape</title>
    <desc>Created with Sketch.</desc>
    <defs></defs>
    <g id="Symbols" stroke="none" stroke-width="1" fill="none" fill-rule="evenodd">
        <g id="Footer/1280" transform="translate(-971.000000, -254.000000)" fill="#535353">
            <g id="Group-7" transform="translate(961.000000, 240.000000)">
                <path d="M19.882747,24.0378688 C19.882747,24.0378688 20.2076075,24.0024375 20.3739994,23.8270092 C20.5263053,23.666272 20.521023,23.3629453 20.521023,23.3629453 C20.521023,23.3629453 20.5007742,21.9465565 21.1707439,21.7374253 C21.8310294,21.5317507 22.678836,23.1071484 23.5785851,23.7129376 C24.258239,24.1709523 24.774142,24.0707076 24.774142,24.0707076 L27.1784617,24.0378688 C27.1784617,24.0378688 28.4356453,23.9618211 27.8396275,22.9913485 C27.7903262,22.911844 27.4918772,22.273216 26.0524548,20.9613928 C24.5443627,19.588213 24.7468502,19.8103069 26.5621952,17.4346798 C27.6679533,15.9880447 28.1099044,15.1048542 27.9716846,14.7272081 C27.8405079,14.3659814 27.0270362,14.4619052 27.0270362,14.4619052 L24.320746,14.4783246 C24.320746,14.4783246 24.1200192,14.4515351 23.9712349,14.5388171 C23.825972,14.6243708 23.7317713,14.8239961 23.7317713,14.8239961 C23.7317713,14.8239961 23.3039063,15.9431074 22.7325393,16.8954323 C21.5272981,18.9037835 21.0457299,19.0100775 20.8485246,18.8856357 C20.3898463,18.5944075 20.5042958,17.7172662 20.5042958,17.0941934 C20.5042958,15.1471989 20.805386,14.3357352 19.9188426,14.1257398 C19.6247955,14.0557413 19.4082218,14.0099398 18.6554964,14.0021622 C17.6897188,13.9926562 16.8727255,14.0056189 16.4096453,14.2277128 C16.101512,14.3754874 15.8638092,14.7056036 16.009072,14.7246156 C16.1877893,14.7479484 16.5927644,14.8317737 16.8075773,15.118681 C17.0848972,15.4894137 17.075213,16.3207535 17.075213,16.3207535 C17.075213,16.3207535 17.2345619,18.6125553 16.702812,18.8968701 C16.3383344,19.0921744 15.8382782,18.6937881 14.7633334,16.8712353 C14.2130955,15.9379224 13.7975558,14.9060931 13.7975558,14.9060931 C13.7975558,14.9060931 13.7174412,14.7133812 13.5739391,14.6096798 C13.4005041,14.4843739 13.1583994,14.4454859 13.1583994,14.4454859 L10.5868075,14.4619052 C10.5868075,14.4619052 10.2003204,14.4722754 10.0585791,14.6373335 C9.93268464,14.7833797 10.0488949,15.0867064 10.0488949,15.0867064 C10.0488949,15.0867064 12.0623255,19.7109263 14.3425114,22.0416161 C16.4334155,24.1778658 18.8069218,24.0378688 18.8069218,24.0378688 L19.882747,24.0378688 Z" id="Shape"></path>
            </g>
        </g>
    </g>
</svg>