<?xml version="1.0" encoding="UTF-8"?>
<svg id="voice" width="40px" height="40px" viewBox="0 0 40 40" version="1.1" xmlns="http://www.w3.org/2000/svg" xmlns:xlink="http://www.w3.org/1999/xlink">
    <title>voice</title>
    <path d="M36 20c0 8.8-7.2 16-16 16-2.7 0-5.3-.7-7.6-2l-7 2L2 32.2 5.2 26C4.4 24.1 4 22 4 20c0-8.8 7.2-16 16-16s16 7.2 16 16zm-2 0c0-7.7-6.3-14-14-14S6 12.3 6 20c0 2 .4 3.9 1.2 5.7l.2.4-3 5.8 1.7 1.8 6.5-1.9.4.2c2.1 1.2 4.6 1.9 7 1.9 7.7.1 14-6.2 14-13.9zm-23 4v-8h2v8h-2zm8 2V14h2v12h-2zm-4-4v-4h2v4h-2zm8-1v-2h2v2h-2zm4 3v-8h2v8h-2z"></path>
</svg>