<?xml version="1.0" encoding="UTF-8"?>
<svg width="21px" height="21px" viewBox="0 0 21 21" version="1.1" xmlns="http://www.w3.org/2000/svg"
     xmlns:xlink="http://www.w3.org/1999/xlink">
    <title></title>
    <path d="M19.7 6.1c.2.9.3 2.4.3 4.4 0 2-.1 3.5-.3 4.4-.1.5-.4.9-.7 1.2-.4.3-.8.5-1.3.6-1.7.2-4 .3-7.2.3s-5.5-.1-7.1-.3c-.5 0-.9-.2-1.3-.6-.4-.3-.6-.8-.7-1.2-.3-.9-.4-2.4-.4-4.4 0-2 .1-3.5.3-4.4.1-.5.4-.9.7-1.2.4-.3.8-.5 1.3-.6 1.7-.2 4-.3 7.2-.3s5.5.1 7.1.3c.5 0 .9.2 1.3.6.4.3.6.7.8 1.2M9.4 7.9V13l4.3-2.6-4.3-2.5z"></path>
</svg>