<?xml version="1.0" encoding="UTF-8"?>
<svg width="22px" height="14px" viewBox="0 0 22 14" version="1.1" xmlns="http://www.w3.org/2000/svg" xmlns:xlink="http://www.w3.org/1999/xlink">
    <!-- Generator: Sketch 51.3 (57544) - http://www.bohemiancoding.com/sketch -->
    <title>account</title>
    <desc>Created with Sketch.</desc>
    <defs></defs>
    <g id="Symbols" stroke="none" stroke-width="1" fill="none" fill-rule="evenodd">
        <g id="Components/Main-menu/320" transform="translate(-226.000000, -17.000000)" fill="#00B956" fill-rule="nonzero">
            <g id="account" transform="translate(226.000000, 17.000000)">
                <path d="M18.8995886,4.15625 L21.360375,6.71956921 L21.360375,10.1458333 L11.885114,10.1458333 C10.8493635,12.121947 8.85247429,13.4010417 6.625375,13.4010417 C3.31184025,13.4010417 0.625375,10.6026404 0.625375,7.15104167 C0.625375,3.69944297 3.31184025,0.901041667 6.625375,0.901041667 C8.85247429,0.901041667 10.8493635,2.18013632 11.885114,4.15625 L18.8995886,4.15625 Z M18.0711614,6.23958333 L10.5805128,6.23958333 L10.3274036,5.58932204 C9.71913346,4.02661906 8.26571158,2.984375 6.625375,2.984375 C4.41640975,2.984375 2.625375,4.8500362 2.625375,7.15104167 C2.625375,9.45204714 4.41640975,11.3177083 6.625375,11.3177083 C8.26571158,11.3177083 9.71913346,10.2754643 10.3274036,8.71276129 L10.5805128,8.0625 L19.360375,8.0625 L19.360375,7.58251413 L18.0711614,6.23958333 Z M6.5,7.15104167 L6.75,7.15104167 C6.75,7.94300583 6.13528559,8.58333333 5.375,8.58333333 C4.6155518,8.58333333 4,7.94257636 4,7.15104167 C4,6.35950698 4.6155518,5.71875 5.375,5.71875 C6.13528559,5.71875 6.75,6.35907751 6.75,7.15104167 C6.58333333,7.583135 6.5,7.583135 6.5,7.15104167 Z" id="Stroke-3"></path>
            </g>
        </g>
    </g>
</svg>