<?xml version="1.0" encoding="UTF-8"?>
<svg width="26px" height="26px" viewBox="0 0 26 26" version="1.1" xmlns="http://www.w3.org/2000/svg" xmlns:xlink="http://www.w3.org/1999/xlink">
    <!-- Generator: Sketch 51.3 (57544) - http://www.bohemiancoding.com/sketch -->
    <title>icon-02</title>
    <desc>Created with Sketch.</desc>
    <defs></defs>
    <g id="Symbols" stroke="none" stroke-width="1" fill="none" fill-rule="evenodd">
        <g id="Footer/1280" transform="translate(-839.000000, -78.000000)" stroke="#333333" stroke-width="2">
            <g id="Group-3" transform="translate(832.000000, 71.000000)">
                <g id="Group-2">
                    <g id="icon-02" transform="translate(8.666667, 8.666667)">
                        <path d="M16.4690333,22.5936833 L6.08303333,19.6251833 L6.08303333,0.245183333 C6.13103333,0.209183333 6.15053333,0.194183333 6.19703333,0.158183333 L16.5830333,3.12518333 L16.5830333,22.5066833 C16.5350333,22.5426833 16.5155333,22.5576833 16.4690333,22.5936833 Z" id="Stroke-1"></path>
                        <path d="M16.7136833,22.5615833 L22.5831833,19.6260833 L22.5831833,0.369083333 C22.4886833,0.310583333 22.4616833,0.292583333 22.3671833,0.234083333 L16.5831833,3.12608333 L16.5831833,22.4805833 C16.6401833,22.5165833 16.6566833,22.5270833 16.7136833,22.5615833 Z" id="Stroke-3"></path>
                        <path d="M0.300083333,22.5176333 L6.08258333,19.6256333 L6.08258333,0.271133333 C6.02558333,0.236633333 6.01058333,0.226133333 5.95358333,0.190133333 L0.0825833333,3.12563333 L0.0825833333,22.3826333 C0.178583333,22.4411333 0.205583333,22.4591333 0.300083333,22.5176333 Z" id="Stroke-5"></path>
                    </g>
                </g>
            </g>
        </g>
    </g>
</svg>