<?xml version="1.0" encoding="UTF-8"?>
<svg width="19px" height="26px" viewBox="0 0 19 26" version="1.1" xmlns="http://www.w3.org/2000/svg" xmlns:xlink="http://www.w3.org/1999/xlink">
    <!-- Generator: Sketch 51.3 (57544) - http://www.bohemiancoding.com/sketch -->
    <title>icon-03</title>
    <desc>Created with Sketch.</desc>
    <defs></defs>
    <g id="Symbols" stroke="none" stroke-width="1" fill="none" fill-rule="evenodd">
        <g id="Footer/1280" transform="translate(-1040.000000, -41.000000)" stroke="#333333" stroke-width="2">
            <g id="Group-2" transform="translate(1041.000000, 42.000000)">
                <g id="icon-03">
                    <path d="M15.4842833,12 C15.4842833,12 16.1547833,10.6605 16.1547833,8.7855 C16.1547833,4.347 12.5577833,0.75 8.11928333,0.75 C3.68078333,0.75 0.0837833333,4.347 0.0837833333,8.7855 C0.0837833333,10.821 0.754283333,12 0.754283333,12 L6.51278333,23.25 L9.72578333,23.25 L15.4842833,12 Z" id="Stroke-1"></path>
                    <path d="M11.1189833,9 C11.1189833,10.656 9.77498333,12 8.11898333,12 C6.46298333,12 5.11898333,10.656 5.11898333,9 C5.11898333,7.344 6.46298333,6 8.11898333,6 C9.77498333,6 11.1189833,7.344 11.1189833,9 Z" id="Stroke-3"></path>
                </g>
            </g>
        </g>
    </g>
</svg>