<?xml version="1.0" encoding="UTF-8"?>
<svg width="35px" height="35px" viewBox="0 0 35 35" version="1.1" xmlns="http://www.w3.org/2000/svg" xmlns:xlink="http://www.w3.org/1999/xlink">
    <!-- Generator: Sketch 58 (84663) - https://sketch.com -->
    <title>VK Copy 2_Color</title>
    <desc>Created with Sketch.</desc>
    <g id="Page-1" stroke="none" stroke-width="1" fill="none" fill-rule="evenodd">
        <g id="VoLTE-WoFi-FI" transform="translate(-750.000000, -2543.000000)">
            <g id="VK-Copy-2" transform="translate(750.000000, 2543.000000)">
                <path d="M0,17.5 C0,7.8350164 7.8350164,0 17.5,0 C27.1649836,0 35,7.8350164 35,17.5 C35,27.1649836 27.1649836,35 17.5,35 C7.8350164,35 0,27.1649836 0,17.5 Z" id="back" fill="#4C6C91"></path>
                <path d="M18.4154413,22.6596417 C18.4154413,22.6596417 18.7523337,22.6228981 18.9248883,22.4409725 C19.0828351,22.2742821 19.0773572,21.959721 19.0773572,21.959721 C19.0773572,21.959721 19.0563585,20.4908734 19.7511419,20.2739966 C20.4358824,20.0607045 21.3150892,21.6944502 22.2481623,22.3226761 C22.9529886,22.7976543 23.4879991,22.6936968 23.4879991,22.6936968 L25.9813676,22.6596417 C25.9813676,22.6596417 27.2851136,22.5807774 26.6670212,21.5743614 C26.6158939,21.4919123 26.3063911,20.8296314 24.8136568,19.4692222 C23.2497094,18.0451838 23.4596965,18.2755034 25.3422765,15.8118901 C26.4889886,14.311676 26.9473083,13.3957747 26.8039693,13.0041417 C26.6679341,12.6295363 25.8243338,12.7290128 25.8243338,12.7290128 L23.0178107,12.7460404 C23.0178107,12.7460404 22.8096495,12.7182586 22.6553547,12.8087733 C22.5047118,12.8974957 22.4070221,13.1045145 22.4070221,13.1045145 C22.4070221,13.1045145 21.9633102,14.2650744 21.3707814,15.2526705 C20.1209017,17.3354051 19.6214977,17.4456359 19.4169885,17.3165852 C18.9413221,17.0145708 19.0600104,16.1049427 19.0600104,15.4587932 C19.0600104,13.4396878 19.3722521,12.5981698 18.4528738,12.3803968 C18.147936,12.3078058 17.9233412,12.260308 17.142737,12.2522423 C16.1411898,12.2423842 15.2939375,12.255827 14.8137062,12.4861466 C14.4941606,12.6393943 14.247654,12.9817371 14.3982969,13.0014532 C14.5836334,13.0256502 15.0036076,13.1125801 15.2263765,13.4101136 C15.5139675,13.7945771 15.5039246,14.6567073 15.5039246,14.6567073 C15.5039246,14.6567073 15.6691754,17.0333907 15.117731,17.3282356 C14.7397542,17.5307735 14.2211774,17.1176321 13.1064198,15.2275774 C12.5358027,14.2596973 12.1048727,13.1896521 12.1048727,13.1896521 C12.1048727,13.1896521 12.0217908,12.9898028 11.8729739,12.8822605 C11.6931154,12.7523137 11.4420439,12.7119853 11.4420439,12.7119853 L8.77520776,12.7290128 C8.77520776,12.7290128 8.3744063,12.7397671 8.22741534,12.9109385 C8.09685815,13.0623938 8.21737248,13.3769548 8.21737248,13.3769548 C8.21737248,13.3769548 10.3053746,18.1724421 12.6700119,20.5894538 C14.8383568,22.8048238 17.2997708,22.6596417 17.2997708,22.6596417 L18.4154413,22.6596417 Z" id="Shape" fill="#FFFFFF"></path>
            </g>
        </g>
    </g>
</svg>