<?xml version="1.0" encoding="UTF-8"?>
<svg width="36px" height="35px" viewBox="0 0 36 35" version="1.1" xmlns="http://www.w3.org/2000/svg" xmlns:xlink="http://www.w3.org/1999/xlink">
    <!-- Generator: Sketch 58 (84663) - https://sketch.com -->
    <title>Youtube Copy 3_Color</title>
    <desc>Created with Sketch.</desc>
    <g id="Page-1" stroke="none" stroke-width="1" fill="none" fill-rule="evenodd">
        <g id="VoLTE-WoFi-FI" transform="translate(-660.000000, -2543.000000)">
            <g id="Youtube-Copy-3" transform="translate(660.000000, 2543.000000)">
                <path d="M0,17.5 C0,7.8350164 7.93821618,0 17.7305032,0 C27.5227902,0 35.4610063,7.8350164 35.4610063,17.5 C35.4610063,27.1649836 27.5227902,35 17.7305032,35 C7.93821618,35 0,27.1649836 0,17.5 Z" id="back" fill="#CE1312"></path>
                <path d="M26.9586885,13.9774515 C26.9586885,13.9774515 26.7739672,12.6630271 26.208,12.0842034 C25.4897705,11.3241621 24.6847869,11.3205854 24.3159344,11.2764732 C21.6731803,11.0833333 17.7090492,11.0833333 17.7090492,11.0833333 L17.7007869,11.0833333 C17.7007869,11.0833333 13.7366557,11.0833333 11.0939016,11.2764732 C10.724459,11.3205854 9.92006557,11.3241621 9.2012459,12.0842034 C8.63527869,12.6630271 8.45114754,13.9774515 8.45114754,13.9774515 C8.45114754,13.9774515 8.26229508,15.5213785 8.26229508,17.0647095 L8.26229508,18.5120666 C8.26229508,20.0559937 8.45114754,21.5993247 8.45114754,21.5993247 C8.45114754,21.5993247 8.63527869,22.9137491 9.2012459,23.4925727 C9.92006557,24.252614 10.8637377,24.2287696 11.2839344,24.3080523 C12.7947541,24.4546956 17.704918,24.5 17.704918,24.5 C17.704918,24.5 21.6731803,24.4940389 24.3159344,24.300899 C24.6847869,24.2561907 25.4897705,24.252614 26.208,23.4925727 C26.7739672,22.9137491 26.9586885,21.5993247 26.9586885,21.5993247 C26.9586885,21.5993247 27.147541,20.0559937 27.147541,18.5120666 L27.147541,17.0647095 C27.147541,15.5213785 26.9586885,13.9774515 26.9586885,13.9774515 L26.9586885,13.9774515 Z" id="Youtube" fill="#FFFFFF"></path>
                <polygon id="Path" fill="#CE1312" points="15.7550164 20.2658247 15.7544262 14.9061921 20.8569836 17.5952481"></polygon>
            </g>
        </g>
    </g>
</svg>