<?xml version="1.0" encoding="UTF-8"?><!DOCTYPE svg PUBLIC "-//W3C//DTD SVG 1.1//EN" "http://www.w3.org/Graphics/SVG/1.1/DTD/svg11.dtd"><svg xmlns="http://www.w3.org/2000/svg" xmlns:xlink="http://www.w3.org/1999/xlink"><defs><path id="arrow-16-a" d="M12.5 6.5v8l-5-4z"/></defs><symbol id="account" viewBox="0 0 22 14"><title>account</title><path d="M18.9 4.156l2.46 2.564v3.426h-9.475C10.85 12.122 8.852 13.4 6.625 13.4c-3.313 0-6-2.798-6-6.25s2.687-6.25 6-6.25c2.227 0 4.224 1.28 5.26 3.255H18.9zM18.07 6.24h-7.49l-.254-.65C9.72 4.026 8.266 2.983 6.625 2.983c-2.209 0-4 1.866-4 4.167 0 2.301 1.791 4.167 4 4.167 1.64 0 3.094-1.043 3.702-2.605l.254-.65h8.78v-.48L18.07 6.24zM6.5 7.15h.25c0 .792-.615 1.432-1.375 1.432S4 7.943 4 7.151c0-.791.616-1.432 1.375-1.432.76 0 1.375.64 1.375 1.432-.167.432-.25.432-.25 0z" fill="#00B956" fill-rule="nonzero"/></symbol><symbol id="arrow-16" viewBox="0 0 20 20"><title>Source/System Icons/16/Arrow-list_down_16</title><g fill="none" fill-rule="evenodd"><mask id="arrow-16-b" fill="#fff"><use xlink:href="#arrow-16-a"/></mask><g mask="url(#arrow-16-b)" fill="#333"><path d="M0 0h20v20H0z"/></g></g></symbol><symbol id="arrow-long" viewBox="0 0 60 32"><title/><path d="M53 17.5H13.7l8.4 8.4L20 28 8 16 20 4l2.1 2.1-8.4 8.4H53z"/></symbol><symbol id="arrow" viewBox="0 0 32 32"><title/><path d="M11.2 12l4.8 4.8 4.8-4.8 1.7 1.6L16 20l-6.5-6.4z"/></symbol><symbol id="call" viewBox="0 0 40 40"><title>call</title><path d="M36 23h-2A17 17 0 0 0 17 6V4a19 19 0 0 1 19 19zm-19-5a5 5 0 0 1 5 5h2a7 7 0 0 0-7-7zm0-8v2a11 11 0 0 1 11 11h2a13 13 0 0 0-13-13zM4 17.56L7.56 14l6.68 6.83-2.78 2.78a12.52 12.52 0 0 0 4.94 4.78l2.78-2.78L26 32.44 22.44 36h-1A17.71 17.71 0 0 1 4 18.52zm2 1A15.6 15.6 0 0 0 21.48 34h.14l1.56-1.56-4-4-2.4 2.4-.65-.33a14.79 14.79 0 0 1-6.79-6.63L9 23.23l2.4-2.4-3.85-4L6 18.38z"/></symbol><symbol id="faq" viewBox="0 0 1024 1024"><title/><path opacity=".67" d="M583.68 819.2c-125.44 0-235.52-76.8-276.48-194.56l-161.28-43.52v-115.2L307.2 422.4c40.96-115.2 151.04-192 276.48-192 161.28 0 294.4 133.12 294.4 294.4 0 163.84-133.12 294.4-294.4 294.4zM197.12 545.28l151.04 40.96 5.12 12.8C384 701.44 478.72 770.56 586.24 770.56c133.12 0 243.2-110.08 243.2-243.2S716.8 281.6 583.68 281.6c-107.52 0-199.68 69.12-232.96 171.52l-5.12 12.8-151.04 40.96v38.4z"/><path opacity=".67" d="M512 524.8c0 20.48-15.36 35.84-35.84 35.84s-35.84-15.36-35.84-35.84 15.36-35.84 35.84-35.84S512 506.88 512 524.8zM619.52 524.8c0 20.48-15.36 35.84-35.84 35.84s-35.84-15.36-35.84-35.84 15.36-35.84 35.84-35.84c20.48 0 35.84 17.92 35.84 35.84zM727.04 524.8c0 20.48-15.36 35.84-35.84 35.84s-35.84-15.36-35.84-35.84 15.36-35.84 35.84-35.84 35.84 17.92 35.84 35.84z"/></symbol><symbol id="fb" viewBox="0 0 21 21"><title/><path d="M8.3 5.1v2.8H5v3.9h3.2V21H12v-9.4h3.2l.7-3.9h-3.7V5.4c0-1.1.3-1.9 1.9-1.9h2V.1c-.3 0-1.5-.1-2.9-.1-2.9 0-4.9 1.7-4.9 5.1z"/></symbol><symbol id="gift" viewBox="0 0 40 40"><title>gift</title><path d="M6 24h2v12h24V24h2V14h-4.54A6 6 0 1 0 20 6.69 6 6 0 1 0 10.54 14H6zm4 0h9v10h-9zm20 10h-9V24h9zM25 6a4 4 0 0 1 0 8h-4v-4a4 4 0 0 1 4-4zm-14 4a4 4 0 0 1 8 0v4h-4a4 4 0 0 1-4-4zm-3 6h24v6H8z"/></symbol><symbol id="h" viewBox="0 0 21 21"><style>.st0{fill-rule:evenodd;clip-rule:evenodd;fill:#535353}</style><title/><title>&#xE065;</title><g id="Symbols"><g id="Footer_x2F_1280" transform="translate(-1154 -252)"><g id="Group-5" transform="translate(1142 240)"><path id="_xE065_" class="st0" d="M25 15.6v5.2h-4.2v-5.2h-4.2v14.7h4.2V25H25v5.3h4.2V15.6z"/></g></g></g></symbol><symbol id="hamburger" viewBox="0 0 24 21"><title>hamburger</title><g fill="#00B956" fill-rule="evenodd"><path d="M0 0h24v3H0zM0 9h24v3H0zM0 18h24v3H0z"/></g></symbol><symbol id="icon-02" viewBox="0 0 26 26"><title>icon-02</title><g stroke="#333" stroke-width="2" fill="none" fill-rule="evenodd"><path d="M18.136 24.26L7.75 21.292V1.912l.114-.087L18.25 4.792v19.381a7.533 7.533 0 0 0-.114.087zM18.38 24.228l5.87-2.935V2.036l-.216-.135-5.784 2.892v19.354c.057.036.073.047.13.081zM1.967 24.184l5.782-2.892V1.938l-.129-.081-5.87 2.935V24.05l.217.135z"/></g></symbol><symbol id="icon-03" viewBox="0 0 19 26"><title>icon-03</title><g stroke="#333" stroke-width="2" fill="none" fill-rule="evenodd"><path d="M16.484 13s.67-1.34.67-3.214A8.035 8.035 0 0 0 9.12 1.75a8.035 8.035 0 0 0-8.035 8.036c0 2.035.67 3.214.67 3.214l5.759 11.25h3.213L16.484 13z"/><path d="M12.119 10a3.001 3.001 0 0 1-6 0 3.001 3.001 0 0 1 6 0z"/></g></symbol><symbol id="icon-04" viewBox="0 0 19 26"><title>icon-04</title><g stroke="#333" stroke-width="2" fill="none" fill-rule="evenodd"><path d="M1.417 12.1v4.05a8.25 8.25 0 0 0 16.5 0V12.1"/><path d="M1.417 4.75v7.5h16.5v-7.5h-2.25l-1.5 3h-1.5l-2.144-6h-1.82l-2.036 6h-1.5l-1.5-3z"/></g></symbol><symbol id="ig" viewBox="0 0 21 21"><title/><path d="M14.5 2H6.6C4.1 2 2 4 2 6.5v7.9C2 17 4.1 19 6.6 19h7.9c2.5 0 4.5-2 4.5-4.5v-8C19 4 17 2 14.5 2zm-4.1 12.8c-2.5 0-4.3-1.9-4.4-4.3 0-2.4 2-4.3 4.3-4.4 2.5 0 4.3 1.9 4.4 4.3 0 2.6-1.8 4.4-4.3 4.4zm5-8.2c-.5 0-1-.5-1-1s.5-1 1-1 1 .4 1 1c0 .5-.5 1-1 1z"/><path d="M10.4 7.8c-1.6 0-2.8 1.3-2.8 2.8 0 1.6 1.3 2.7 2.8 2.7 1.6 0 2.8-1.3 2.8-2.8.1-1.5-1.2-2.7-2.8-2.7z"/></symbol><symbol id="infinity" viewBox="0 0 28 13"><title>Page 1 Copy 10</title><path d="M21.5 11c-3.534 0-5.708-3.313-6.373-4.5C15.792 5.313 17.966 2 21.5 2 23.981 2 26 4.019 26 6.5S23.981 11 21.5 11m-15 0A4.505 4.505 0 0 1 2 6.5C2 4.019 4.019 2 6.5 2c3.534 0 5.708 3.313 6.373 4.5C12.208 7.687 10.034 11 6.5 11m15-11c-3.804 0-6.275 2.712-7.5 4.518C12.775 2.712 10.304 0 6.5 0A6.508 6.508 0 0 0 0 6.5C0 10.084 2.916 13 6.5 13c3.804 0 6.275-2.712 7.5-4.518C15.225 10.288 17.696 13 21.5 13c3.584 0 6.5-2.916 6.5-6.5S25.084 0 21.5 0" fill="#000" fill-rule="evenodd"/></symbol><symbol id="location" viewBox="0 0 1024 1024"><title/><path d="M570.88 826.88H458.24L304.64 524.8c-2.56-2.56-20.48-35.84-20.48-94.72 0-128 104.96-230.4 230.4-230.4 128 0 230.4 104.96 230.4 230.4 0 53.76-17.92 92.16-20.48 94.72l-153.6 302.08zm-81.92-51.2h51.2l140.8-273.92c0-2.56 15.36-30.72 15.36-71.68 0-99.84-81.92-179.2-179.2-179.2-99.84 0-179.2 81.92-179.2 179.2 0 43.52 12.8 69.12 12.8 69.12l138.24 276.48z"/><path d="M514.56 537.6c-56.32 0-102.4-46.08-102.4-102.4s46.08-102.4 102.4-102.4c56.32 0 102.4 46.08 102.4 102.4s-46.08 102.4-102.4 102.4zm0-153.6c-28.16 0-51.2 23.04-51.2 51.2s23.04 51.2 51.2 51.2c28.16 0 51.2-23.04 51.2-51.2s-23.04-51.2-51.2-51.2z"/></symbol><symbol id="map" viewBox="0 0 1024 1024"><title/><path d="M647.68 829.44L350.72 742.4V215.04l23.04-17.92 299.52 84.48v527.36l-25.6 20.48zM401.92 704l217.6 61.44V320l-217.6-61.44V704z"/><path d="M647.68 829.44l-28.16-17.92V284.16l174.08-87.04 30.72 17.92v522.24l-176.64 92.16zm25.6-512v442.88l102.4-51.2V266.24l-102.4 51.2zM227.84 826.88l-30.72-17.92V286.72l176.64-89.6 25.6 15.36 2.56 15.36v512l-174.08 87.04zm20.48-509.44v442.88l102.4-51.2V266.24l-102.4 51.2z"/></symbol><symbol id="mobile_4g" viewBox="0 0 40 40"><title>mobile_4g</title><path d="M32.1 13C28.3 6.3 19.7 4 13 7.9S4 20.3 7.9 27s12.4 9 19.1 5.1c2.1-1.2 3.9-3 5.1-5.1l1.7 1c-4.4 7.7-14.2 10.3-21.9 5.9S1.7 19.7 6.1 12 20.4 1.7 28 6.1c2.4 1.4 4.5 3.4 5.9 5.9l-1.8 1zm4.9 3h-2v3h-3v2h3v3h2v-3h3v-2h-3v-3zM18 26v-2h1v-2h-1v-3h-2v3h-3.7l2.5-7.7-1.9-.6-2.7 8.4-.1.5.9 1.3h5v2h2zm10.3-9.3l1.2-1.6c-2.5-1.8-5.9-1.5-8 .6-2.4 2.4-2.4 6.3 0 8.7 1.2 1.2 2.7 1.8 4.3 1.8 1.3 0 2.6-.4 3.7-1.2l.4-.3V19h-4.1v2h2.1v2.5c-1.6.9-3.7.7-5-.7-1.6-1.6-1.6-4.2 0-5.8 1.5-1.4 3.8-1.5 5.4-.3z"/></symbol><symbol id="ok" viewBox="0 0 21 21"><title/><path d="M15.2 17.5l-2.7-2.7c.9-.2 2-.6 2.8-1.2.7-.4.9-1.3.4-2-.4-.7-1.3-.9-2-.4-2 1.3-4.6 1.2-6.5 0-.7-.4-1.5-.2-2 .4-.4.7-.2 1.5.4 2 .9.5 1.8.9 2.8 1.2l-2.7 2.7c-.6.6-.6 1.5 0 2 .6.6 1.5.6 2 0l2.7-2.7 2.7 2.7c.6.6 1.5.6 2 0 .6-.6.6-1.6.1-2z"/><path d="M10.5 1.1C7.8 1.1 5.7 3.3 5.7 6s2.2 5 4.9 5 4.9-2.2 4.9-4.9-2.3-5-5-5zm0 6.9c-1.1 0-2-.9-2-2s.9-2 2-2 2 .9 2 2-1 2-2 2z"/></symbol><symbol id="search" viewBox="0 0 19 21"><title>search</title><g fill="#00B956" fill-rule="nonzero"><path d="M16.875 9.75a7.125 7.125 0 1 0-14.25 0 7.125 7.125 0 0 0 14.25 0zm2 0a9.125 9.125 0 0 1-9.125 9.125A9.125 9.125 0 0 1 .625 9.75 9.125 9.125 0 0 1 9.75.625a9.125 9.125 0 0 1 9.125 9.125z"/><path d="M18.633 19.74l-3.33-4.057-1.546 1.269 3.33 4.057z"/></g></symbol><symbol id="support" viewBox="0 0 40 40"><title/><path d="M5.41 36l6.94-2a16 16 0 1 0-7.18-8l-3.3 6.14zM7.2 25.66A14 14 0 1 1 13 32.1l-.37-.21-6.58 1.86-1.74-1.9 3.09-5.74zM12 20a2 2 0 1 1 2 2 2 2 0 0 1-2-2zm6 0a2 2 0 1 1 2 2 2 2 0 0 1-2-2zm6 0a2 2 0 1 1 2 2 2 2 0 0 1-2-2z"/></symbol><symbol id="tg" viewBox="0 0 21 21"><style>.st0{fill-rule:evenodd;clip-rule:evenodd;fill:#535353}</style><title/><title>Combined Shape</title><g id="Symbols"><g id="Footer_x2F_1280" transform="translate(-1212 -251)"><g id="Group-6" transform="translate(1202 240)"><path id="Combined-Shape" class="st0" d="M18.8 23.6l7.3-6.6c.3-.3-.1-.4-.5-.2l-9.1 5.7-3.9-1.2c-.8-.3-.9-.8.2-1.3l15.3-5.9c.7-.3 1.4.2 1.1 1.2l-2.6 12.2c-.2.9-.7 1.1-1.4.7l-4-2.9-1.9 1.9c-.2.2-.4.4-.8.4l.3-4z"/></g></g></g></symbol><symbol id="tw" viewBox="0 0 21 21"><title/><path d="M19 5.3c-.6.3-1.3.5-2 .5.6-.5 1.3-1.1 1.5-2-.4.3-1 .6-1.5.8-.8.3-1.1-.4-1.8-.6-.4-.3-.8-.3-1.3-.3-2.5-.3-4.3 2-3.8 4.4C7.3 8 4.7 6.6 2.8 4.3c-.7 1.8-.5 3.8 1.1 4.9-.6 0-1.1-.2-1.5-.4.1 1.6 1.1 3.1 2.9 3.5-.5.3-1.1.1-1.5.1C4.3 14 5.7 15 7.2 15c-1.1 1.3-3.8 1.8-5.3 1.5.5.6 2 1 2.8 1.3 1.3.3 2.6.5 3.9.2 2.5-.3 4.9-1.4 6.5-3.4.9-1.1 1.5-2.3 2-3.6.3-.6.4-1.1.5-1.9.1-.6 0-1.4.3-2-.4-.1 1.4-1.5 1.1-1.8z"/></symbol><symbol id="user" viewBox="0 0 32 32"><title/><path d="M26.71 11.65h-1.53A8.43 8.43 0 0 0 16.76 4h-1.52A8.18 8.18 0 0 0 7 11.65H5.29A3.22 3.22 0 0 0 2 14.94V18a3.19 3.19 0 0 0 3.29 3.29H9v-8.64A7.56 7.56 0 0 1 9.19 11 19.33 19.33 0 0 0 19 13.65h4.24L23 21.82c0 1.87-.56 3.84-2.06 4.12A3.5 3.5 0 0 0 17.5 23h-2a3.5 3.5 0 0 0 0 7h2a3.5 3.5 0 0 0 3.15-2c2.64 0 4.35-2.45 4.35-6.15v-.56h1.69A3.19 3.19 0 0 0 30 18v-3.06a3.22 3.22 0 0 0-3.29-3.29zM7 19.29H5.29A1.3 1.3 0 0 1 4 18v-3.06a1.3 1.3 0 0 1 1.29-1.29H7zm12-7.65a17.31 17.31 0 0 1-9.09-2.55A6 6 0 0 1 15.24 6h1.53a6.44 6.44 0 0 1 6.4 5.65zM17.5 28h-2a1.5 1.5 0 0 1 0-3h2a1.5 1.5 0 0 1 0 3zM28 18a1.3 1.3 0 0 1-1.29 1.29h-1.64l.14-5.65h1.5a1.3 1.3 0 0 1 1.29 1.3z"/></symbol><symbol id="vimeo" viewBox="0 0 32 32"><title/><g fill="none" fill-rule="evenodd"><path d="M4 16C4 9.373 9.373 4 16 4s12 5.373 12 12-5.373 12-12 12S4 22.627 4 16z" fill="#00ADEF"/><path d="M22.793 13.681c-.064 1.402-1.043 3.32-2.937 5.757-1.958 2.544-3.614 3.816-4.969 3.816-.84 0-1.55-.774-2.13-2.324l-1.162-4.262c-.431-1.549-.893-2.324-1.388-2.324-.107 0-.484.227-1.13.678L8.4 14.15a178.77 178.77 0 0 0 2.101-1.874c.948-.819 1.66-1.25 2.134-1.293 1.12-.108 1.81.658 2.07 2.297.28 1.77.473 2.87.581 3.3.324 1.468.68 2.201 1.068 2.201.3 0 .754-.476 1.357-1.428s.926-1.676.97-2.174c.086-.822-.237-1.233-.97-1.233a2.7 2.7 0 0 0-1.066.236c.708-2.318 2.06-3.444 4.056-3.38 1.48.044 2.178 1.003 2.092 2.879" fill="#FFFFFE"/></g></symbol><symbol id="vip" viewBox="0 0 1024 1024"><title/><path d="M504.32 829.44c-130.56 0-238.08-104.96-238.08-238.08v-102.4h51.2v102.4c0 102.4 84.48 186.88 186.88 186.88S691.2 693.76 691.2 591.36v-102.4h51.2v102.4c-2.56 133.12-107.52 238.08-238.08 238.08z"/><path d="M739.84 519.68h-473.6v-243.2h99.84l38.4 76.8h5.12l51.2-153.6h81.92l53.76 153.6h5.12l38.4-76.8h99.84v243.2zm-422.4-51.2h371.2v-140.8h-15.36l-38.4 76.8H563.2l-53.76-153.6H499.2L448 404.48h-71.68l-38.4-76.8h-15.36v140.8z"/></symbol><symbol id="vk" viewBox="0 0 21 21"><title/><path d="M17.9 12.9c-.5-.6-1.2-1.2-1.4-1.5-.2-.4-.2-.6 0-.9 0 0 2.5-3.4 2.7-4.6.1-.4-.1-.7-.6-.7h-2.1c-.5 0-.7.2-.8.6 0 0-1.2 2.5-2.5 4-.5.6-.7.8-.9.8s-.3-.3-.3-.8v-4c0-.6-.1-.7-.6-.7H8c-.2 0-.5.2-.5.4 0 .6.8.7.8 2.1v3c0 .6 0 .8-.2.8-.7 0-2.5-2.5-3.4-5.4-.3-.8-.4-1-1-1H1.6c-.4 0-.6.4-.6.6 0 .6.7 3.2 3.3 6.7C6 14.7 8.4 16 10.5 16c1.3 0 1.6-.2 1.6-.7v-1.9c0-.5.2-.7.5-.7s.8.1 2.1 1.3c1.4 1.4 1.5 2 2.3 2h2.5c.2 0 .5-.1.5-.6-.4-.3-1.1-1.3-2.1-2.5z"/></symbol><symbol id="voice" viewBox="0 0 40 40"><title>voice</title><path d="M36 20c0 8.8-7.2 16-16 16-2.7 0-5.3-.7-7.6-2l-7 2L2 32.2 5.2 26C4.4 24.1 4 22 4 20c0-8.8 7.2-16 16-16s16 7.2 16 16zm-2 0c0-7.7-6.3-14-14-14S6 12.3 6 20c0 2 .4 3.9 1.2 5.7l.2.4-3 5.8 1.7 1.8 6.5-1.9.4.2c2.1 1.2 4.6 1.9 7 1.9 7.7.1 14-6.2 14-13.9zm-23 4v-8h2v8h-2zm8 2V14h2v12h-2zm-4-4v-4h2v4h-2zm8-1v-2h2v2h-2zm4 3v-8h2v8h-2z"/></symbol><symbol id="yt" viewBox="0 0 21 21"><title/><path d="M19.7 6.1c.2.9.3 2.4.3 4.4 0 2-.1 3.5-.3 4.4-.1.5-.4.9-.7 1.2-.4.3-.8.5-1.3.6-1.7.2-4 .3-7.2.3s-5.5-.1-7.1-.3c-.5 0-.9-.2-1.3-.6-.4-.3-.6-.8-.7-1.2-.3-.9-.4-2.4-.4-4.4 0-2 .1-3.5.3-4.4.1-.5.4-.9.7-1.2.4-.3.8-.5 1.3-.6 1.7-.2 4-.3 7.2-.3s5.5.1 7.1.3c.5 0 .9.2 1.3.6.4.3.6.7.8 1.2M9.4 7.9V13l4.3-2.6-4.3-2.5z"/></symbol></svg>