<?xml version="1.0" encoding="UTF-8"?>
<svg width="151px" height="150px" viewBox="0 0 151 150" version="1.1" xmlns="http://www.w3.org/2000/svg" xmlns:xlink="http://www.w3.org/1999/xlink">
    <title>logo</title>
    <desc>Created with Sketch.</desc>
    <g id="Symbols" stroke="none" stroke-width="1" fill="none" fill-rule="evenodd">
        <g id="Logotype/Face" transform="translate(-88.000000, -88.000000)" fill="#00B956" fill-rule="nonzero">
            <g id="logo" transform="translate(88.000000, 88.000000)">
                <path d="M126.7,115.9 C121.5,115.9 117.3,111.7 117.3,106.5 C117.3,101.3 121.5,97.1 126.7,97.1 C131.9,97.1 136.1,101.3 136.1,106.5 C136.1,111.7 131.9,115.9 126.7,115.9 M104.7,115.9 C99.5,115.9 95.3,111.7 95.3,106.5 C95.3,101.3 99.5,97.1 104.7,97.1 C109.9,97.1 114.1,101.3 114.1,106.5 C114.1,111.7 109.9,115.9 104.7,115.9 M82.7,115.9 C77.5,115.9 73.3,111.7 73.3,106.5 C73.3,101.3 77.5,97.1 82.7,97.1 C87.9,97.1 92.1,101.3 92.1,106.5 C92.1,111.7 87.9,115.9 82.7,115.9 M84.3,0.6 L84.3,77.9 L84.3,77.9 L84.3,77.9 C84.3,81.3 81.5,84 78.2,84 L69,84 C68.5,84 68.2,84.4 68.2,84.8 L68.2,149.6 C70.5,149.8 72.8,149.9 75.1,149.9 C116.5,149.9 150.1,116.3 150.1,74.9 C150,36.7 121.3,5.1 84.3,0.6" id="Shape"></path>
                <path d="M60.6,61.8 C55.4,61.8 51.2,57.6 51.2,52.4 C51.2,47.2 55.4,43 60.6,43 C65.8,43 70,47.2 70,52.4 C70,57.6 65.8,61.8 60.6,61.8 L60.6,61.8 Z M75,0 C33.6,0 0,33.6 0,75 C0,111 25.3,141 59.1,148.3 L59.1,81 L59.1,81 C59.2,77.8 61.8,75.1 65,75 L65,75 L68.1,75 L74.4,75 C74.8,75 75.2,74.7 75.2,74.2 L75.2,0 L75,0 Z" id="Shape"></path>
            </g>
        </g>
    </g>
</svg>