<svg width="130" height="24" viewBox="0 0 130 24" fill="none" xmlns="http://www.w3.org/2000/svg">
<path d="M126.651 6.81592V11.1564H120.839V6.81592H117.979V18.2883H120.839V13.6564H126.651V18.2883H129.526V6.81592H126.651Z" fill="#00B956"/>
<path fill-rule="evenodd" clip-rule="evenodd" d="M76.5929 6.55518C77.5106 6.55518 78.4741 7.06131 78.9482 8.10425L83.6282 18.2883H80.5847L79.56 15.865H73.6259L72.6011 18.2883H69.5576L74.2376 8.10425C74.7117 7.06131 75.6753 6.55518 76.5929 6.55518ZM76.3635 9.40793L74.6047 13.5644H78.5811L76.8223 9.40793C76.7764 9.26989 76.6694 9.23922 76.5929 9.23922C76.5164 9.23922 76.4247 9.28523 76.3635 9.40793Z" fill="#00B956"/>
<path d="M44.8576 4.74536C43.5117 4.74536 42.6553 5.46622 42.0282 6.90794L38.2964 15.5276L34.5647 6.90794C33.9376 5.46622 33.0811 4.74536 31.7353 4.74536C30.4812 4.74536 29.1812 5.65027 29.1812 7.59812V18.2883H32.0412V7.90487L35.8035 16.4631C36.3082 17.6595 37.1188 18.411 38.2964 18.411V18.411V18.411C39.4741 18.411 40.2847 17.6595 40.7894 16.4631L44.5517 7.90487V18.2883H47.4117V7.61346C47.4117 5.65027 46.1117 4.74536 44.8576 4.74536" fill="#00B956"/>
<path d="M52.4283 15.865C52.2907 15.865 52.1836 15.7576 52.1836 15.6196V13.5797H59.326V11.2331H52.1836V9.48463C52.1836 9.34659 52.2907 9.23923 52.4283 9.23923H59.4942V6.81592H51.0213C50.0271 6.81592 49.3236 7.64414 49.3236 8.51837V16.5552C49.3236 17.4294 50.0424 18.2576 51.0213 18.2576H59.4942V15.8343H52.4283V15.865Z" fill="#00B956"/>
<path d="M64.3577 18.2881V9.49977C64.3577 9.36173 64.4647 9.25437 64.6024 9.25437H71.6683V6.83105H63.1953C62.2012 6.83105 61.4977 7.65928 61.4977 8.53351V18.2881H64.3577Z" fill="#00B956"/>
<path fill-rule="evenodd" clip-rule="evenodd" d="M110.026 6.64722C114.354 6.64722 116.082 8.51838 116.082 12.5368C116.082 16.4938 114.324 18.3957 109.995 18.3957H109.047C104.719 18.3957 102.96 16.4938 102.96 12.5368C102.96 8.51838 104.673 6.64722 109.017 6.64722H110.026ZM109.062 16.0184H109.98C112.351 16.0184 113.299 14.9447 113.299 12.5368V12.5214C113.299 10.1902 112.412 9.03985 109.98 9.03985H109.062C106.554 9.03985 105.744 10.1902 105.744 12.5214V12.5368C105.744 14.9447 106.677 16.0184 109.062 16.0184Z" fill="#00B956"/>
<path fill-rule="evenodd" clip-rule="evenodd" d="M89.3025 5.02148H94.9766C99.1978 5.02148 100.895 7.16872 100.911 10.9111C100.911 11.4939 100.865 12.0307 100.788 12.5368C100.345 15.1902 98.7848 16.816 94.8236 16.816H93.5848V18.2884H90.7248V16.816H89.4707C85.5095 16.816 83.9495 15.1902 83.506 12.5368C83.4143 12.0307 83.3837 11.4939 83.3837 10.9111C83.3837 7.16872 85.066 5.02148 89.3025 5.02148ZM90.7096 14.3927H89.3943C87.452 14.3927 86.7637 13.6718 86.3355 12.5368C86.1672 12.092 86.1672 11.5399 86.1672 10.9111C86.1672 8.4724 87.299 7.42946 88.9508 7.42946H90.7096V14.3927ZM97.9437 12.5368C97.5154 13.6718 96.8119 14.3927 94.8849 14.3927H93.5696V7.42946H95.3284C96.9802 7.42946 98.1119 8.45707 98.1119 10.9111C98.1119 11.5399 98.1119 12.092 97.9437 12.5368Z" fill="#00B956"/>
<path fill-rule="evenodd" clip-rule="evenodd" d="M13.3519 12.4447V0.588867C19.0107 1.27905 23.4001 6.12568 23.4154 11.9846C23.4154 18.3343 18.2766 23.4876 11.9448 23.4876C11.5931 23.4876 11.2413 23.4723 10.8895 23.4416V13.503C10.8895 13.4416 10.9354 13.3803 11.0119 13.3803H12.4189C12.9236 13.3803 13.3519 12.9662 13.3519 12.4447ZM13.1072 18.2729C12.3119 18.2729 11.6695 17.6287 11.6695 16.8312C11.6695 16.0337 12.3119 15.3895 13.1072 15.3895C13.9025 15.3895 14.5448 16.0337 14.5448 16.8312C14.5448 17.6287 13.9025 18.2729 13.1072 18.2729ZM15.0343 16.8312C15.0343 17.6287 15.6766 18.2729 16.4719 18.2729C17.2672 18.2729 17.9095 17.6287 17.9095 16.8312C17.9095 16.0337 17.2672 15.3895 16.4719 15.3895C15.6766 15.3895 15.0343 16.0337 15.0343 16.8312ZM18.399 16.8312C18.399 17.6287 19.0413 18.2729 19.8366 18.2729C20.6319 18.2729 21.2743 17.6287 21.2743 16.8312C21.2743 16.0337 20.6319 15.3895 19.8366 15.3895C19.0413 15.3895 18.399 16.0337 18.399 16.8312Z" fill="#00B956"/>
<path fill-rule="evenodd" clip-rule="evenodd" d="M0.458862 11.9999C0.458862 5.6502 5.59769 0.496826 11.9295 0.496826H11.96V11.8772C11.96 11.9539 11.8989 11.9999 11.8377 11.9999H10.8742H10.4C9.91063 12.0152 9.51298 12.4293 9.49769 12.9201V23.2422C4.32827 22.1226 0.458862 17.5214 0.458862 11.9999ZM8.28949 8.53363C8.28949 9.33118 8.93185 9.97535 9.72714 9.97535C10.5224 9.97535 11.1648 9.33118 11.1648 8.53363C11.1648 7.73609 10.5224 7.09192 9.72714 7.09192C8.93185 7.09192 8.28949 7.73609 8.28949 8.53363Z" fill="#00B956"/>
</svg>
