<?xml version="1.0" standalone="no"?>
<!DOCTYPE svg PUBLIC "-//W3C//DTD SVG 20010904//EN"
 "http://www.w3.org/TR/2001/REC-SVG-20010904/DTD/svg10.dtd">
<svg version="1.0" xmlns="http://www.w3.org/2000/svg"
 width="604.000000pt" height="604.000000pt" viewBox="0 0 604.000000 604.000000"
 preserveAspectRatio="xMidYMid meet">
<metadata>
Created by potrace 1.11, written by Peter Selinger 2001-2013
</metadata>
<g transform="translate(0.000000,604.000000) scale(0.100000,-0.100000)"
fill="#000000" stroke="none">
<path d="M2818 6015 c-2 -1 -43 -5 -93 -9 -49 -3 -99 -7 -110 -9 -11 -3 -41
-7 -66 -11 -63 -9 -92 -15 -168 -32 -36 -8 -75 -16 -86 -18 -11 -1 -30 -6 -42
-10 -12 -4 -30 -9 -40 -11 -34 -7 -188 -55 -223 -69 -19 -8 -62 -24 -95 -37
-33 -12 -107 -45 -165 -72 -58 -28 -107 -51 -110 -51 -3 -1 -37 -21 -77 -44
-39 -23 -74 -42 -78 -42 -3 0 -11 -5 -18 -10 -25 -21 -88 -60 -97 -60 -6 0
-10 -4 -10 -8 0 -4 -15 -16 -32 -27 -18 -10 -37 -23 -43 -27 -5 -4 -53 -41
-105 -81 -197 -152 -385 -339 -529 -528 -36 -47 -73 -96 -81 -109 -8 -12 -22
-32 -31 -44 -72 -95 -213 -353 -282 -517 -58 -137 -128 -354 -162 -505 -28
-125 -29 -131 -40 -205 -3 -26 -8 -56 -10 -68 -13 -68 -20 -213 -20 -406 1
-199 4 -265 20 -375 3 -19 8 -48 10 -65 8 -53 23 -139 29 -165 3 -14 8 -34 10
-45 2 -11 12 -49 21 -85 9 -36 18 -69 19 -75 11 -56 102 -300 156 -420 18 -38
33 -72 33 -75 0 -3 13 -27 29 -53 15 -26 28 -50 28 -53 0 -16 192 -316 246
-383 133 -167 303 -350 420 -451 59 -52 211 -168 274 -211 36 -24 67 -46 70
-49 3 -3 16 -12 30 -19 14 -8 63 -37 110 -64 115 -67 368 -187 393 -187 7 0
17 -4 23 -9 24 -22 421 -138 432 -126 4 3 7 615 7 1358 1 744 5 1368 9 1387
13 54 53 106 109 142 l51 33 226 3 c128 2 230 8 237 13 9 8 11 362 12 1500 l0
1490 -94 -2 c-52 -1 -95 -3 -97 -4z m-248 -1746 c30 -13 61 -28 68 -34 31 -24
102 -100 102 -109 0 -5 7 -17 15 -26 26 -28 47 -134 41 -206 -12 -150 -133
-300 -265 -329 -12 -3 -31 -8 -43 -11 -27 -6 -99 -6 -140 1 -101 18 -213 108
-264 211 -26 53 -29 69 -29 159 1 89 4 107 29 158 29 60 115 157 138 157 8 0
24 9 36 20 12 12 22 19 22 16 0 -2 19 2 43 9 65 20 182 13 247 -16z"/>
<path d="M3372 4437 c0 -855 -3 -1570 -7 -1589 -13 -62 -65 -126 -129 -158
l-59 -30 -218 0 c-210 0 -218 -1 -224 -20 -5 -15 -10 -2474 -6 -2591 1 -18 42
-22 276 -22 168 -1 307 9 428 29 20 3 47 7 60 8 12 2 36 6 52 9 17 4 45 9 64
12 19 3 37 8 41 10 4 2 22 7 41 10 69 11 308 83 327 98 6 5 12 7 12 4 0 -3 21
3 48 14 26 11 56 24 67 29 71 29 233 106 246 117 8 7 23 13 32 13 9 0 17 4 17
9 0 5 8 11 18 14 9 3 38 19 64 34 101 61 143 87 153 95 5 4 57 42 115 85 58
42 110 81 116 87 6 6 34 30 61 53 229 194 469 483 629 758 49 84 117 214 119
225 0 3 10 25 22 50 62 132 100 237 161 445 20 68 56 233 67 311 4 22 8 50 11
64 6 36 16 138 18 186 2 22 5 44 8 50 3 5 2 18 -2 29 -4 11 -4 31 -1 45 14 51
-1 368 -24 515 -4 28 -9 59 -11 70 -2 11 -9 49 -15 84 -5 36 -12 67 -14 71 -2
4 -7 20 -10 36 -3 16 -12 54 -20 84 -9 30 -18 65 -20 77 -6 26 -72 220 -85
248 -5 11 -21 48 -35 82 -40 100 -77 177 -93 196 -8 9 -12 17 -8 17 3 0 -5 18
-19 40 -14 22 -25 42 -25 45 0 7 -150 247 -159 255 -3 3 -17 21 -31 40 -106
152 -313 377 -469 510 -35 30 -69 60 -75 65 -29 27 -171 128 -261 187 -85 55
-269 161 -285 164 -3 0 -43 19 -90 40 -47 22 -112 50 -145 63 -33 13 -69 27
-80 31 -31 13 -59 23 -70 25 -19 5 -160 47 -175 52 -18 7 -11 5 -130 31 -125
27 -144 31 -217 38 l-61 7 0 -1556z m61 -2323 c72 -25 154 -88 185 -143 43
-74 51 -92 58 -127 7 -39 7 -135 1 -164 -23 -96 -105 -205 -188 -249 -135 -72
-298 -57 -420 40 -108 85 -161 249 -124 379 9 30 16 61 17 68 1 6 4 12 8 12 3
0 16 17 28 38 19 34 84 102 97 102 3 0 18 8 32 18 73 48 209 59 306 26z m847
12 c68 -15 180 -92 218 -151 101 -159 83 -352 -46 -480 -111 -111 -272 -140
-415 -77 -134 59 -216 181 -222 328 -4 118 33 206 123 291 87 82 215 116 342
89z m908 -10 c50 -17 123 -63 152 -97 57 -66 76 -101 93 -175 7 -33 12 -78 10
-100 -4 -59 -24 -134 -35 -134 -5 0 -7 -4 -4 -9 7 -10 -47 -86 -83 -119 -70
-62 -177 -102 -261 -97 -55 4 -110 14 -124 23 -6 4 -14 7 -17 7 -22 0 -116 75
-148 118 -144 192 -80 456 136 566 82 41 188 47 281 17z"/>
</g>
</svg>
